<svg version="1.1"
     style="display: none"
     xmlns="http://www.w3.org/2000/svg"
     xmlns:xlink="http://www.w3.org/1999/xlink">
  <defs>
    <linearGradient id="a" x1="141.67" x2="141.67" y1=".060827" y2="97.79" gradientUnits="userSpaceOnUse">
      <stop stop-color="#ED765E" offset="0"/>
      <stop stop-color="#FEA858" offset="1"/>
    </linearGradient>
  </defs>
  <symbol id="logo" viewBox="0 0 170 201">
    <path d="m0 21.003c-1.9457e-6 -12.319 0.15817-20.942 9.0338-20.942 2.6125-2e-6 6.2368-0.011862 10.285-0.025108 9.7041-0.031756 21.843-0.071479 28.314 0.025108l0.1984 0.0029448c8.9882 0.13305 10.067 0.14903 10.067 20.939 0 4.2779 9e-3 11.626 0.02 20.695 0.0321 26.453 0.082 67.543-0.02 89.764-0.2737 5.612 1.2319 16.836 9.4445 16.836h92.391c3.285 0.547 9.855 2.874 9.855 10.265v34.493c0 2.601-1.971 7.802-9.855 7.802h-133.86c-20.121 0-25.87-10.923-25.87-34.903v-144.95zm129.52 76.787c-11.93 0-16.191-3.3285-16.191-12.393v-68.694c0-16.642 3.664-16.642 13.208-16.642h29.825c11.504 0 13.634 0 13.634 16.642v68.694c0 6.7277 0 12.393-10.226 12.393h-30.25z" fill="url(#a)" clip-rule="evenodd" fill-rule="evenodd"/>
  </symbol>
  <use xlink:href="#logo"></use>
</svg>
